<svg width="21" height="20" viewBox="0 0 21 20" fill="none" xmlns="http://www.w3.org/2000/svg">
<path d="M18.3491 7.73079L10.6568 2.6026C10.5515 2.53559 10.4292 2.5 10.3043 2.5C10.1794 2.5 10.0571 2.53559 9.95172 2.6026L2.25943 7.73079C2.17006 7.78878 2.09677 7.86838 2.04634 7.96222C1.99592 8.05607 1.97 8.16112 1.97097 8.26765V16.601C1.97097 16.941 2.10605 17.2671 2.34648 17.5075C2.58691 17.7479 2.913 17.883 3.25302 17.883H17.3555C17.6956 17.883 18.0217 17.7479 18.2621 17.5075C18.5025 17.2671 18.6376 16.941 18.6376 16.601V8.26765C18.6386 8.16112 18.6126 8.05607 18.5622 7.96222C18.5118 7.86838 18.4385 7.78878 18.3491 7.73079ZM7.79628 12.7548L3.25302 15.9599V9.50963L7.79628 12.7548ZM9.11037 13.3958H11.4982L16.0334 16.601H4.57513L9.11037 13.3958ZM12.8123 12.7548L17.3555 9.50963V15.9599L12.8123 12.7548Z" fill="#101828"/>
</svg>
