<svg width="18" height="17" viewBox="0 0 18 17" fill="none" xmlns="http://www.w3.org/2000/svg">
<path d="M17.1488 0H5.81551C5.62765 0 5.44748 0.0746279 5.31464 0.207466C5.18181 0.340304 5.10718 0.520472 5.10718 0.708333V4.25H1.56551C1.37765 4.25 1.19748 4.32463 1.06464 4.45747C0.931806 4.5903 0.857178 4.77047 0.857178 4.95833V16.2917C0.857178 16.4795 0.931806 16.6597 1.06464 16.7925C1.19748 16.9254 1.37765 17 1.56551 17H12.8988C13.0867 17 13.2669 16.9254 13.3997 16.7925C13.5325 16.6597 13.6072 16.4795 13.6072 16.2917V12.75H17.1488C17.3367 12.75 17.5169 12.6754 17.6497 12.5425C17.7826 12.4097 17.8572 12.2295 17.8572 12.0417V0.708333C17.8572 0.520472 17.7826 0.340304 17.6497 0.207466C17.5169 0.0746279 17.3367 0 17.1488 0ZM16.4405 11.3333H13.6072V4.95833C13.6072 4.77047 13.5325 4.5903 13.3997 4.45747C13.2669 4.32463 13.0867 4.25 12.8988 4.25H6.52384V1.41667H16.4405V11.3333Z" fill="#101828"/>
</svg>
