<svg width="21" height="20" viewBox="0 0 21 20" fill="none" xmlns="http://www.w3.org/2000/svg">
<path d="M8.0127 1.66667C4.22193 1.66667 1.1377 4.27635 1.1377 7.48398C1.1377 9.32906 2.16169 10.9725 3.75025 12.0384L2.91016 13.6986L5.13641 12.7587C5.82635 13.0289 6.57418 13.2109 7.36403 13.2737C7.21666 12.8323 7.13129 12.3702 7.13129 11.891C7.13129 8.97039 10.0516 6.60257 13.6537 6.60257C14.0511 6.60257 14.4385 6.6364 14.8161 6.6914C14.3567 3.85855 11.4847 1.66667 8.0127 1.66667ZM5.54475 4.83975C6.03164 4.83975 6.42616 5.23427 6.42616 5.72116C6.42616 6.20805 6.03164 6.60257 5.54475 6.60257C5.05786 6.60257 4.66334 6.20805 4.66334 5.72116C4.66334 5.23427 5.05786 4.83975 5.54475 4.83975ZM10.4806 4.83975C10.9675 4.83975 11.3621 5.23427 11.3621 5.72116C11.3621 6.20805 10.9675 6.60257 10.4806 6.60257C9.99375 6.60257 9.59923 6.20805 9.59923 5.72116C9.59923 5.23427 9.99375 4.83975 10.4806 4.83975ZM13.6537 7.3077C10.4461 7.3077 7.83641 9.36385 7.83641 11.891C7.83641 14.4182 10.4461 16.4744 13.6537 16.4744C14.1461 16.4744 14.6215 16.4209 15.0784 16.3298L18.2674 17.676L17.1794 15.5282C18.5693 14.6899 19.471 13.3735 19.471 11.891C19.471 9.36385 16.8614 7.3077 13.6537 7.3077ZM11.8909 10.1282C12.3778 10.1282 12.7723 10.5227 12.7723 11.0096C12.7723 11.4965 12.3778 11.891 11.8909 11.891C11.404 11.891 11.0095 11.4965 11.0095 11.0096C11.0095 10.5227 11.404 10.1282 11.8909 10.1282ZM15.4165 10.1282C15.9034 10.1282 16.298 10.5227 16.298 11.0096C16.298 11.4965 15.9034 11.891 15.4165 11.891C14.9297 11.891 14.5351 11.4965 14.5351 11.0096C14.5351 10.5227 14.9297 10.1282 15.4165 10.1282Z" fill="#101828"/>
</svg>
